<svg id="Layer_3" enable-background="new 0 0 64 64" height="512" viewBox="0 0 64 64" width="512" xmlns="http://www.w3.org/2000/svg"><g><path d="m62 51c0 1.657-4.029 3-9 3s-9-1.343-9-3v-4c0 1.657 4.029 3 9 3s9-1.343 9-3" fill="#f5b953"/><path d="m62 59c0 1.657-4.029 3-9 3s-9-1.343-9-3v-4c0 1.657 4.029 3 9 3s9-1.343 9-3" fill="#f5b953"/><path d="m62 55c0 1.657-4.029 3-9 3s-9-1.343-9-3v-4c0 1.657 4.029 3 9 3s9-1.343 9-3" fill="#f9d18b"/><path d="m62 47c0 1.657-4.029 3-9 3s-9-1.343-9-3v-4c0 1.657 4.029 3 9 3s9-1.343 9-3" fill="#f9d18b"/><g fill="#f5b953"><ellipse cx="53" cy="43" rx="9" ry="3"/><path d="m20 51c0 1.657-4.029 3-9 3s-9-1.343-9-3v-4c0 1.657 4.029 3 9 3s9-1.343 9-3"/><path d="m20 59c0 1.657-4.029 3-9 3s-9-1.343-9-3v-4c0 1.657 4.029 3 9 3s9-1.343 9-3"/></g><path d="m20 55c0 1.657-4.029 3-9 3s-9-1.343-9-3v-4c0 1.657 4.029 3 9 3s9-1.343 9-3" fill="#f9d18b"/><path d="m20 47c0 1.657-4.029 3-9 3s-9-1.343-9-3v-4c0 1.657 4.029 3 9 3s9-1.343 9-3" fill="#f9d18b"/><ellipse cx="11" cy="43" fill="#f5b953" rx="9" ry="3"/><path d="m41 59c0 1.657-4.029 3-9 3s-9-1.343-9-3v-4c0 1.657 4.029 3 9 3s9-1.343 9-3" fill="#f5b953"/><path d="m41 55c0 1.657-4.029 3-9 3s-9-1.343-9-3v-4c0 1.657 4.029 3 9 3s9-1.343 9-3" fill="#f9d18b"/><ellipse cx="32" cy="51" fill="#f5b953" rx="9" ry="3"/><circle cx="32" cy="35" fill="#f5b953" r="11"/><path d="m47 8h2v14h-2z" fill="#3d98f7"/><path d="m48 27c-1.105 0-2-.895-2-2v-2c0-1.105.895-2 2-2 1.105 0 2 .895 2 2v2c0 1.105-.895 2-2 2z" fill="#2b74ca"/><path d="m45 8v10l-13 6-13-6v-10" fill="#3d98f7"/><path d="m14 8 18 6 18-6-18-6z" fill="#2b74ca"/><path d="m32 30c1.103 0 2 .897 2 2h2c0-1.858-1.279-3.411-3-3.858v-2.142h-2v2.142c-1.721.447-3 2-3 3.858 0 2.206 1.794 4 4 4 1.103 0 2 .897 2 2s-.897 2-2 2-2-.897-2-2h-2c0 1.859 1.279 3.411 3 3.858v2.142h2v-2.142c1.721-.447 3-1.999 3-3.858 0-2.206-1.794-4-4-4-1.103 0-2-.897-2-2s.897-2 2-2z" fill="#fff"/></g></svg>