<?xml version="1.0" encoding="UTF-8"?>
<svg xmlns="http://www.w3.org/2000/svg" xmlns:xlink="http://www.w3.org/1999/xlink" width="32pt" height="32pt" viewBox="0 0 32 32" version="1.1">
<g id="surface1">
<path style=" stroke:none;fill-rule:nonzero;fill:rgb(0%,0%,0%);fill-opacity:1;" d="M 31.1875 13.851562 C 31.1875 13.851562 31.1875 13.847656 31.183594 13.847656 L 18.136719 0.800781 C 17.582031 0.242188 16.839844 -0.0625 16.054688 -0.0625 C 15.269531 -0.0625 14.527344 0.242188 13.972656 0.800781 L 0.929688 13.839844 C 0.925781 13.847656 0.921875 13.851562 0.917969 13.855469 C -0.222656 15.003906 -0.222656 16.867188 0.921875 18.011719 C 1.445312 18.535156 2.136719 18.839844 2.878906 18.871094 C 2.90625 18.875 2.9375 18.875 2.96875 18.875 L 3.488281 18.875 L 3.488281 28.480469 C 3.488281 30.378906 5.035156 31.925781 6.933594 31.925781 L 12.039062 31.925781 C 12.558594 31.925781 12.976562 31.503906 12.976562 30.988281 L 12.976562 23.460938 C 12.976562 22.59375 13.683594 21.886719 14.550781 21.886719 L 17.558594 21.886719 C 18.425781 21.886719 19.132812 22.59375 19.132812 23.460938 L 19.132812 30.988281 C 19.132812 31.503906 19.550781 31.925781 20.070312 31.925781 L 25.175781 31.925781 C 27.074219 31.925781 28.621094 30.378906 28.621094 28.480469 L 28.621094 18.875 L 29.105469 18.875 C 29.890625 18.875 30.628906 18.570312 31.1875 18.011719 C 32.332031 16.867188 32.332031 15 31.1875 13.851562 Z M 29.859375 16.6875 C 29.660156 16.890625 29.390625 17.003906 29.105469 17.003906 L 27.683594 17.003906 C 27.167969 17.003906 26.746094 17.421875 26.746094 17.9375 L 26.746094 28.480469 C 26.746094 29.34375 26.042969 30.050781 25.175781 30.050781 L 21.007812 30.050781 L 21.007812 23.460938 C 21.007812 21.558594 19.460938 20.011719 17.558594 20.011719 L 14.550781 20.011719 C 12.648438 20.011719 11.101562 21.558594 11.101562 23.460938 L 11.101562 30.050781 L 6.933594 30.050781 C 6.066406 30.050781 5.363281 29.34375 5.363281 28.480469 L 5.363281 17.9375 C 5.363281 17.421875 4.941406 17.003906 4.425781 17.003906 L 3.03125 17.003906 C 3.015625 17 3 17 2.984375 17 C 2.707031 16.996094 2.445312 16.882812 2.25 16.6875 C 1.832031 16.269531 1.832031 15.589844 2.25 15.175781 C 2.25 15.175781 2.25 15.171875 2.25 15.171875 L 15.296875 2.125 C 15.5 1.921875 15.769531 1.8125 16.054688 1.8125 C 16.339844 1.8125 16.609375 1.921875 16.8125 2.125 L 29.855469 15.171875 C 29.859375 15.171875 29.859375 15.175781 29.863281 15.175781 C 30.277344 15.59375 30.277344 16.273438 29.859375 16.6875 Z M 29.859375 16.6875 "/>
</g>
</svg>
