<svg height="512" viewBox="0 0 58 52" width="512" xmlns="http://www.w3.org/2000/svg"><g id="Page-1" fill="none" fill-rule="evenodd"><g id="076---Cash-Search" fill-rule="nonzero"><path id="Shape" d="m8 28v5c0 .5522847.44771525 1 1 1h29v-6z" fill="#e57e25"/><path id="Shape" d="m4 23v5c0 .5522847.44771525 1 1 1h39v-6z" fill="#f29c1f"/><path id="Shape" d="m48 23c0 .5522847-.4477153 1-1 1h-46c-.55228475 0-1-.4477153-1-1v-22c0-.55228475.44771525-1 1-1h46c.5522847 0 1 .44771525 1 1z" fill="#f0c419"/><ellipse id="Oval" cx="24" cy="12" fill="#f29c1f" rx="11" ry="12"/><path id="Shape" d="m25 11.091v-4.937c1.1128409.25246244 1.9267959 1.20723172 2 2.346 0 .55228475.4477153 1 1 1s1-.44771525 1-1c-.0965423-2.24159872-1.7783513-4.09537268-4-4.409v-.091c0-.55228475-.4477153-1-1-1s-1 .44771525-1 1v.091c-2.2216487.31362732-3.9034577 2.16740128-4 4.409.0965423 2.2415987 1.7783513 4.0953727 4 4.409v4.937c-1.1128409-.2524624-1.9267959-1.2072317-2-2.346 0-.5522847-.4477153-1-1-1s-1 .4477153-1 1c.0965423 2.2415987 1.7783513 4.0953727 4 4.409v.091c0 .5522847.4477153 1 1 1s1-.4477153 1-1v-.091c2.2216487-.3136273 3.9034577-2.1674013 4-4.409-.0965423-2.2415987-1.7783513-4.0953727-4-4.409zm-4-2.591c.0732041-1.13876828.8871591-2.09353756 2-2.346v4.692c-1.1128409-.2524624-1.9267959-1.20723172-2-2.346zm4 9.346v-4.692c1.1128409.2524624 1.9267959 1.2072317 2 2.346-.0732041 1.1387683-.8871591 2.0935376-2 2.346z" fill="#ecf0f1"/><g fill="#f3d55b"><path id="Shape" d="m4 9c-.55228475 0-1-.44771525-1-1v-4c0-.55228475.44771525-1 1-1h4c.55228475 0 1 .44771525 1 1s-.44771525 1-1 1h-3v3c0 .55228475-.44771525 1-1 1z"/><path id="Shape" d="m44 9c-.5522847 0-1-.44771525-1-1v-3h-3c-.5522847 0-1-.44771525-1-1s.4477153-1 1-1h4c.5522847 0 1 .44771525 1 1v4c0 .55228475-.4477153 1-1 1z"/><path id="Shape" d="m8 21h-4c-.55228475 0-1-.4477153-1-1v-4c0-.5522847.44771525-1 1-1s1 .4477153 1 1v3h3c.55228475 0 1 .4477153 1 1s-.44771525 1-1 1z"/></g><path id="Shape" d="m33.94 37.82-8.09 8.08c-1.3669047 1.3669048-1.3669046 3.5830952.0000001 4.9499999s3.5830951 1.3669048 4.9499999.0000001l8.28-8.27z" fill="#3f5c6c"/><path id="Shape" d="m58 31c.0042103 5.9907856-4.0833534 11.2098793-9.9006118 12.6413247-5.8172583 1.4314454-11.8599485-1.2949096-14.6361827-6.6035868s-1.5681166-11.8269261 2.9262183-15.7880477c4.4943348-3.9611216 11.1127139-4.3408247 16.0305762-.9196902 3.4943145 2.4289628 5.5785474 6.4144047 5.58 10.67z" fill="#2fa8cc"/><path id="Shape" d="m52.96 24.04c-.0016513 4.8389148-2.6907851 9.2764691-6.9795075 11.5174421-4.2887224 2.2409729-9.4672086 1.914462-13.4404925-.8474421-1.5736627-5.2926925.3678163-11.0020167 4.8417569-14.2381971 4.4739406-3.2361803 10.5040724-3.2930414 15.0382431-.1418029.3583134 1.204079.5402045 2.4537378.54 3.71z" fill="#67b9cc"/></g></g></svg>